<svg width="400" height="300" viewBox="0 0 400 300" xmlns="http://www.w3.org/2000/svg">
  <!-- Background -->
  <rect width="400" height="300" fill="#F5F5F5" rx="12" ry="12"/>
  
  <!-- Devices -->
  <rect x="150" y="40" width="180" height="120" rx="8" ry="8" fill="#000000"/>
  <rect x="160" y="50" width="160" height="90" fill="#FFFFFF"/>
  <rect x="160" y="140" width="160" height="10" fill="#FFFFFF" rx="5" ry="5"/>
  
  <!-- Laptop -->
  <rect x="70" y="170" width="120" height="80" rx="5" ry="5" fill="#000000"/>
  <rect x="80" y="180" width="100" height="60" fill="#FFFFFF"/>
  <rect x="50" y="250" width="160" height="10" rx="5" ry="5" fill="#111111"/>
  
  <!-- Tablet -->
  <rect x="240" y="180" width="90" height="70" rx="5" ry="5" fill="#333333"/>
  <rect x="245" y="185" width="80" height="55" fill="#FFFFFF"/>
  <circle cx="285" cy="245" r="3" fill="#FFFFFF"/>
  
  <!-- Code elements -->
  <rect x="100" y="190" width="60" height="5" fill="#000000"/>
  <rect x="100" y="200" width="40" height="5" fill="#333333"/>
  <rect x="100" y="210" width="50" height="5" fill="#666666"/>
  <rect x="100" y="220" width="30" height="5" fill="#888888"/>
  
  <!-- Design elements -->
  <rect x="255" y="195" width="60" height="5" fill="#000000"/>
  <rect x="255" y="205" width="40" height="15" rx="2" ry="2" fill="#333333"/>
  <rect x="255" y="225" width="60" height="5" fill="#000000"/>
  
  <!-- Screen elements -->
  <rect x="180" y="60" width="120" height="10" fill="#E0E0E0"/>
  <rect x="180" y="80" width="90" height="10" fill="#E0E0E0"/>
  <rect x="180" y="100" width="60" height="20" fill="#000000" rx="4" ry="4"/>
  
  <!-- Abstract elements -->
  <circle cx="60" cy="60" r="30" fill="#000000" fill-opacity="0.1"/>
  <circle cx="340" cy="240" r="25" fill="#333333" fill-opacity="0.1"/>
  <circle cx="30" cy="200" r="20" fill="#000000" fill-opacity="0.1"/>
  <circle cx="370" cy="80" r="15" fill="#666666" fill-opacity="0.1"/>
</svg> 