<?xml version="1.0" standalone="no"?>
<!DOCTYPE svg PUBLIC "-//W3C//DTD SVG 20010904//EN"
 "http://www.w3.org/TR/2001/REC-SVG-20010904/DTD/svg10.dtd">
<svg version="1.0" xmlns="http://www.w3.org/2000/svg"
 width="1280.000000pt" height="1280.000000pt" viewBox="0 0 1280.000000 1280.000000"
 preserveAspectRatio="xMidYMid meet">

<g transform="translate(0.000000,1280.000000) scale(0.100000,-0.100000)"
fill="#000000" stroke="none">
<path d="M4720 11090 c0 -8 -58 -70 -65 -70 -2 0 -1 9 2 20 6 21 -11 28 -22
10 -5 -8 -11 -8 -19 -1 -7 6 -16 8 -20 4 -10 -10 -176 -10 -176 0 0 4 -9 3
-20 -3 -14 -7 -26 -8 -39 0 -13 7 -28 7 -45 0 -18 -6 -26 -6 -26 1 0 6 -7 8
-16 5 -9 -3 -21 -3 -27 1 -16 10 -67 12 -62 2 6 -9 -62 -5 -72 5 -12 12 -22 6
-16 -11 5 -13 3 -15 -13 -8 -10 5 -34 8 -51 7 -27 -2 -33 2 -33 18 0 11 -4 20
-10 20 -9 0 -14 -14 -11 -32 0 -5 -5 -8 -13 -8 -8 0 -17 -6 -19 -12 -3 -8 -6
-6 -6 5 -1 21 -4 21 -41 2 -27 -14 -30 -14 -30 0 0 19 -9 19 -32 -2 -17 -15
-18 -15 -18 0 0 10 -4 17 -10 17 -5 0 -7 -7 -3 -16 4 -12 0 -14 -23 -8 -16 4
-32 12 -36 17 -4 8 -18 7 -42 0 -31 -10 -36 -9 -36 5 0 15 -2 14 -17 -1 -16
-16 -16 -19 -3 -28 13 -9 13 -10 0 -6 -8 2 -16 13 -18 25 -4 28 -14 28 -30 1
-10 -16 -17 -18 -25 -10 -21 21 -25 11 -23 -61 1 -40 -1 -85 -5 -100 -5 -19
-3 -31 8 -39 10 -9 13 -23 9 -42 -4 -17 1 -41 11 -60 9 -18 17 -43 18 -57 6
-64 19 -117 36 -142 23 -32 24 -38 2 -38 -14 0 -15 -2 -1 -17 9 -10 14 -23 11
-29 -2 -6 3 -17 12 -24 8 -7 15 -23 15 -36 0 -13 5 -24 10 -24 6 0 10 -7 10
-16 0 -8 4 -13 8 -10 5 3 7 -22 6 -56 -1 -50 2 -64 19 -81 12 -12 20 -31 19
-43 -2 -12 4 -29 13 -38 9 -9 14 -20 11 -25 -4 -5 -2 -11 2 -13 5 -1 12 -16
16 -32 6 -26 5 -28 -8 -17 -13 11 -16 11 -16 -3 0 -10 7 -24 15 -32 8 -9 15
-11 15 -5 0 6 5 11 10 11 14 0 12 -27 -2 -34 -10 -3 -8 -9 5 -19 23 -19 22
-27 -5 -28 -21 0 -21 -1 -4 -8 14 -5 16 -10 8 -15 -17 -10 -15 -29 3 -22 8 3
15 1 15 -4 0 -6 7 -10 15 -10 17 0 21 -45 5 -55 -16 -10 -1 -25 18 -18 13 5
15 3 5 -7 -13 -14 -2 -31 30 -43 9 -3 17 -12 17 -19 0 -9 -3 -9 -12 0 -22 22
-29 12 -26 -36 3 -43 5 -48 23 -44 11 3 26 9 33 15 18 14 15 -3 -5 -25 -10
-12 -12 -18 -4 -18 7 0 11 -10 9 -22 -2 -15 2 -23 12 -23 20 0 25 -34 6 -41
-9 -3 -16 -10 -16 -16 0 -5 4 -7 9 -3 5 3 12 1 16 -5 3 -5 1 -10 -6 -10 -8 0
-6 -6 4 -18 10 -10 17 -25 17 -33 0 -8 5 -20 11 -26 11 -11 20 -54 22 -105 0
-21 3 -25 12 -18 15 12 26 -15 29 -70 1 -19 10 -51 19 -70 9 -20 18 -54 20
-77 2 -37 5 -42 32 -48 17 -4 24 -9 17 -12 -9 -4 -10 -8 -2 -18 7 -9 7 -15 1
-19 -14 -9 21 -67 37 -61 6 2 12 -3 12 -12 0 -12 -7 -14 -31 -9 -27 5 -29 4
-15 -9 8 -9 13 -22 10 -30 -3 -7 4 -23 15 -34 12 -12 21 -30 21 -41 0 -11 6
-23 14 -26 11 -4 12 -12 7 -27 -10 -25 6 -46 28 -39 8 3 5 -6 -7 -18 -12 -13
-22 -29 -22 -34 0 -6 4 -5 9 3 14 21 33 2 29 -29 -3 -20 -1 -27 9 -23 7 3 13
0 13 -6 0 -7 -7 -14 -15 -17 -18 -7 -20 -25 -2 -22 7 2 12 -7 12 -20 0 -16 10
-28 33 -39 32 -16 33 -16 14 -37 -15 -17 -17 -25 -8 -42 6 -11 16 -19 23 -17
7 3 9 -3 6 -17 -4 -16 -2 -19 11 -14 9 3 16 1 16 -5 0 -7 -7 -14 -15 -17 -8
-4 -15 -15 -15 -25 0 -21 16 -26 22 -7 3 7 11 9 24 4 15 -7 16 -9 4 -14 -8 -3
-21 -12 -30 -21 -13 -13 -13 -14 3 -8 12 5 17 1 17 -11 0 -10 5 -23 12 -30 9
-9 9 -15 0 -24 -18 -18 -14 -32 4 -17 15 13 17 11 12 -17 -3 -22 -1 -31 8 -27
13 5 22 -26 26 -84 1 -19 8 -33 15 -33 9 0 13 -15 13 -45 0 -32 4 -45 14 -45
7 0 20 -8 27 -17 12 -15 12 -16 -3 -10 -26 9 -23 -28 3 -47 15 -10 19 -20 14
-35 -9 -30 3 -61 26 -61 11 0 19 -7 19 -16 0 -11 -6 -14 -20 -9 -11 4 -20 2
-20 -4 0 -6 3 -11 8 -11 4 0 15 -14 24 -30 15 -26 15 -32 4 -36 -12 -4 -10
-10 6 -26 11 -11 18 -28 15 -38 -3 -14 -1 -17 11 -13 12 5 14 2 9 -12 -10 -25
11 -49 29 -34 9 7 14 8 14 1 0 -5 -7 -12 -15 -16 -8 -3 -15 -10 -15 -16 0 -5
7 -10 15 -10 8 0 15 -4 15 -10 0 -5 -7 -7 -15 -4 -8 4 -15 1 -15 -5 0 -6 7
-11 16 -11 11 0 14 -6 9 -20 -5 -16 -3 -19 12 -13 14 5 16 4 7 -8 -19 -24 -24
-58 -8 -52 8 3 14 -1 14 -11 0 -9 -6 -16 -12 -17 -7 0 -4 -4 8 -9 20 -8 52
-86 40 -98 -3 -3 4 -12 16 -20 21 -15 21 -16 2 -23 -18 -7 -17 -8 3 -8 23 -1
40 -17 24 -23 -5 -1 -12 -14 -15 -28 -5 -20 0 -29 27 -45 22 -14 33 -29 35
-49 3 -25 1 -28 -17 -23 -12 3 -21 2 -21 -3 0 -4 9 -10 20 -13 13 -3 20 -14
20 -29 0 -13 4 -28 9 -33 5 -6 11 -26 13 -45 2 -25 8 -34 18 -33 12 2 15 -8
15 -50 0 -44 3 -52 18 -51 14 2 16 -3 11 -20 -9 -29 -9 -28 6 -58 7 -16 17
-28 22 -28 6 0 8 -6 5 -12 -2 -7 0 -22 6 -33 14 -26 16 -54 5 -61 -16 -10 -7
-24 16 -24 13 0 27 -7 30 -16 9 -24 7 -28 -9 -14 -12 10 -15 9 -15 -4 0 -9 7
-19 15 -22 8 -4 15 -10 15 -15 0 -5 -7 -9 -15 -9 -8 0 -15 -4 -15 -10 0 -5 10
-9 21 -7 32 3 35 -21 5 -33 -14 -5 -26 -12 -26 -14 0 -9 45 -2 53 9 5 6 7 1 4
-12 -3 -16 0 -23 9 -23 8 0 14 -4 14 -10 0 -5 -7 -10 -15 -10 -17 0 -9 -31 12
-43 7 -4 13 -13 13 -18 0 -6 -4 -8 -10 -4 -5 3 -4 -8 2 -26 6 -17 19 -34 30
-37 12 -3 17 -10 14 -19 -3 -8 -6 -19 -6 -24 0 -5 -7 -9 -16 -9 -8 0 -13 -4
-10 -9 3 -5 16 -7 27 -4 19 5 20 4 10 -16 -8 -14 -8 -21 -1 -21 5 0 10 -11 10
-24 0 -13 7 -29 15 -36 8 -7 12 -16 9 -21 -3 -5 0 -9 6 -9 6 0 10 -12 8 -27
-2 -16 3 -33 12 -40 13 -11 12 -12 -5 -13 -18 0 -18 -1 3 -16 12 -8 22 -22 22
-31 0 -9 11 -31 25 -49 18 -23 22 -35 13 -40 -7 -5 -4 -10 10 -15 25 -10 29
-29 6 -29 -8 0 -12 -5 -9 -10 4 -6 10 -8 15 -5 5 3 11 1 15 -5 3 -5 -1 -10 -9
-10 -20 0 -20 -8 2 -51 11 -21 24 -34 32 -32 8 3 5 -5 -8 -16 -15 -13 -19 -22
-11 -26 6 -4 9 -18 6 -31 -2 -13 1 -22 7 -21 6 1 12 -10 14 -25 2 -15 11 -29
20 -31 15 -4 15 -5 0 -6 -10 0 -18 -9 -18 -18 0 -13 3 -14 12 -5 17 17 28 15
28 -4 0 -8 -4 -13 -9 -9 -5 3 -12 1 -16 -5 -3 -6 0 -13 8 -16 19 -7 48 -92 50
-145 1 -35 4 -39 28 -39 15 0 32 -7 39 -15 11 -13 8 -14 -21 -10 -29 5 -31 4
-11 -4 26 -12 30 -33 5 -25 -14 5 -15 4 -4 -4 8 -6 20 -8 28 -5 16 6 16 1 1
-32 -10 -22 -8 -29 15 -53 21 -23 26 -39 31 -99 3 -52 1 -73 -7 -73 -8 0 -7
-4 2 -9 10 -6 20 -3 32 12 9 12 21 18 25 14 5 -4 4 -11 -2 -15 -19 -12 -22
-37 -8 -57 15 -20 19 -61 7 -68 -5 -2 -3 -3 3 -1 14 3 40 -43 30 -53 -4 -4
-11 -1 -16 7 -8 13 -10 13 -10 -1 0 -9 7 -22 15 -29 8 -7 13 -16 10 -20 -3 -5
-1 -11 5 -15 5 -3 10 -1 10 4 0 6 5 11 10 11 15 0 12 -21 -7 -42 -11 -12 -12
-18 -3 -18 6 0 10 -6 7 -14 -3 -8 1 -17 10 -20 9 -4 13 -13 9 -22 -4 -9 -2
-13 5 -8 17 10 29 -17 18 -39 -13 -23 -4 -48 14 -41 11 4 14 -2 11 -25 -3 -23
1 -31 17 -36 16 -5 19 -12 15 -31 -5 -20 -2 -24 16 -25 15 -1 17 -3 7 -6 -23
-6 -21 -50 2 -56 11 -3 19 -11 19 -17 0 -10 -4 -10 -15 0 -9 7 -18 10 -21 7
-6 -5 15 -48 29 -58 4 -3 7 -12 5 -20 -2 -8 4 -13 15 -13 24 2 22 -17 -3 -23
-11 -3 -20 -11 -20 -18 0 -8 8 -11 20 -8 15 4 20 0 20 -15 0 -12 6 -27 14 -34
12 -11 12 -16 -2 -32 -15 -17 -15 -19 -1 -14 13 5 15 -2 13 -40 -2 -34 0 -42
8 -34 18 18 30 14 23 -6 -7 -23 18 -85 30 -75 4 5 5 0 2 -9 -4 -12 -1 -18 8
-18 21 0 19 -18 -2 -23 -17 -4 -17 -5 0 -6 19 -1 22 -12 6 -28 -8 -8 -8 -13 0
-17 6 -4 11 -17 11 -29 1 -31 24 -59 44 -51 20 8 21 -5 0 -34 -14 -21 -14 -22
5 -22 18 0 20 -5 15 -32 -3 -18 -8 -39 -10 -47 -4 -12 -1 -12 13 1 15 14 20
14 30 3 7 -8 9 -16 4 -20 -5 -3 -11 0 -13 6 -2 7 -9 5 -17 -5 -11 -13 -11 -16
2 -16 25 0 40 -26 27 -49 -9 -17 -8 -21 5 -21 8 0 15 -4 15 -10 0 -5 -7 -10
-15 -10 -8 0 -15 -4 -15 -10 0 -6 9 -6 26 1 31 11 40 7 20 -10 -13 -11 -12
-17 4 -44 13 -21 16 -37 10 -47 -6 -9 -3 -18 8 -26 16 -11 16 -13 0 -31 -16
-18 -16 -19 1 -30 13 -8 17 -20 14 -37 -4 -21 -2 -24 15 -19 15 4 20 -1 21
-21 4 -60 6 -66 19 -66 10 0 12 -7 8 -24 -4 -15 0 -28 10 -37 12 -10 14 -23
10 -50 -3 -21 -2 -41 4 -44 5 -3 10 -15 10 -26 0 -10 7 -19 15 -19 18 0 19
-11 3 -29 -11 -12 -10 -13 6 -7 14 5 17 2 12 -9 -3 -9 0 -15 11 -15 13 0 13
-3 3 -15 -10 -12 -10 -15 0 -15 8 0 10 -8 7 -21 -7 -24 20 -99 35 -99 5 0 7
-9 3 -20 -7 -21 7 -53 37 -87 11 -12 17 -27 13 -33 -4 -7 -2 -16 6 -20 10 -7
10 -11 0 -24 -18 -22 3 -56 34 -56 l25 0 -20 -34 c-16 -30 -17 -36 -5 -46 16
-13 10 -34 -6 -25 -5 4 -9 1 -9 -4 0 -6 7 -11 15 -11 8 0 15 -7 15 -16 0 -9 8
-23 18 -30 10 -8 12 -13 5 -14 -7 0 -13 -8 -12 -17 0 -11 3 -13 6 -5 10 24 25
11 21 -18 -4 -25 -1 -30 15 -30 15 0 18 -5 14 -22 -3 -11 1 -37 8 -56 13 -30
13 -33 -1 -28 -8 3 -12 2 -9 -4 3 -6 13 -10 21 -10 18 0 18 -15 -1 -33 -13
-13 -13 -17 0 -27 8 -7 14 -15 13 -18 0 -4 0 -19 1 -34 1 -20 5 -26 16 -22 10
4 15 0 15 -14 0 -12 5 -24 10 -27 16 -10 12 -25 -7 -25 -17 -1 -17 -1 0 -11 9
-6 14 -15 11 -21 -5 -8 -1 -9 10 -5 13 5 17 3 13 -7 -3 -8 3 -22 14 -32 10 -9
19 -22 19 -28 0 -6 -5 -4 -10 4 -7 11 -10 7 -10 -17 0 -18 4 -33 9 -33 5 0 14
-14 21 -30 11 -28 23 -34 58 -33 10 1 9 -3 -2 -16 -23 -26 -20 -32 11 -20 20
7 34 7 50 -2 18 -9 26 -9 38 1 12 10 15 10 15 -4 0 -9 7 -16 15 -16 8 0 12 6
9 13 -3 9 10 12 53 12 47 -1 61 3 75 19 10 12 17 26 18 33 0 7 6 10 13 7 10
-4 13 7 13 43 -1 43 1 48 20 47 19 0 21 3 13 30 -5 17 -9 32 -9 33 0 2 9 3 20
3 20 0 28 24 11 34 -15 10 11 54 29 48 11 -4 11 -1 -3 12 -16 17 -16 20 -2 35
8 10 15 25 15 34 0 9 5 17 11 17 8 0 8 5 -1 15 -10 12 -10 15 3 15 10 0 14 6
11 14 -3 8 -1 17 5 21 6 3 11 12 11 18 0 7 -4 6 -10 -3 -13 -20 -13 -5 0 20
24 48 28 57 34 87 4 17 14 37 22 44 16 13 19 34 4 24 -6 -3 -10 -1 -10 4 0 6
5 11 11 11 8 0 10 12 6 36 -5 28 -3 35 8 30 19 -7 31 14 14 24 -10 7 -7 16 12
42 14 18 29 42 33 53 6 16 9 17 16 5 13 -20 12 -4 -1 43 -8 29 -7 42 2 53 10
13 10 17 -2 24 -11 8 -10 12 9 25 12 9 22 24 22 34 0 9 5 22 12 29 10 10 17
37 20 80 2 20 22 8 29 -19 6 -21 7 -21 8 9 1 17 -3 32 -8 32 -5 0 -7 9 -4 20
3 11 12 20 20 20 13 0 13 3 3 15 -9 10 -9 15 -1 15 19 0 12 18 -9 25 -23 7
-27 25 -5 25 8 0 15 5 15 11 0 5 5 7 11 3 8 -5 10 3 7 25 -3 21 0 31 9 31 11
0 17 30 16 77 -1 12 11 17 30 14 5 -1 6 11 3 26 -5 20 -1 34 12 48 19 21 27
65 11 65 -5 0 -9 8 -9 18 0 14 2 15 10 2 7 -11 10 -11 10 -2 0 7 10 17 23 21
l22 9 -25 10 c-14 6 -19 11 -12 11 6 1 12 8 12 17 0 13 6 15 28 10 17 -4 22
-3 13 2 -8 6 -11 17 -6 31 5 18 2 24 -14 28 -12 3 -21 11 -21 19 0 8 6 11 15
8 9 -4 15 0 15 9 0 8 7 18 16 21 13 5 15 14 10 41 -5 25 -3 35 5 33 7 -2 16
14 21 37 5 22 13 44 18 49 6 6 10 18 10 28 0 10 5 18 10 18 7 0 7 7 -1 21 -6
12 -7 19 -1 15 5 -3 15 1 21 8 9 11 9 19 -1 35 -7 12 -16 21 -20 21 -5 0 -8 5
-8 10 0 18 40 11 41 -7 0 -12 2 -13 6 -5 3 7 -1 19 -7 28 -11 12 -10 13 4 8
10 -4 16 -1 16 9 0 8 -5 17 -10 19 -6 2 4 18 22 37 32 32 32 33 13 47 -16 12
-17 16 -6 23 11 7 11 9 0 13 -10 3 -7 8 9 17 12 6 22 16 22 22 0 6 6 17 14 25
8 7 12 23 9 34 -4 13 0 20 9 20 10 0 15 10 14 30 -1 24 -5 30 -18 26 -10 -2
-18 0 -18 6 0 5 9 12 19 15 13 3 18 10 14 21 -4 10 -2 13 5 8 7 -4 15 8 23 33
7 25 16 38 24 34 22 -8 30 19 10 33 -18 13 -18 14 0 34 10 11 14 20 10 20 -4
0 -1 8 7 18 8 9 13 31 11 49 -2 24 2 35 17 43 11 6 20 16 20 22 0 6 7 16 16
23 14 10 15 15 4 35 -8 15 -9 25 -2 29 6 4 9 18 8 33 -2 19 1 25 10 21 18 -7
30 25 17 45 -10 17 5 74 25 94 16 16 15 33 -3 48 -11 9 -13 16 -6 23 7 7 15 6
26 -3 13 -10 13 -15 3 -21 -9 -6 -6 -8 8 -7 23 2 22 29 -2 49 -8 6 -14 16 -14
22 0 7 4 7 12 -1 20 -20 32 -13 13 8 -18 20 -15 24 18 21 9 -1 17 2 17 8 0 5
-8 12 -17 14 -14 4 -14 5 -2 6 10 1 15 12 16 38 1 21 8 42 17 49 22 15 21 35
-1 27 -15 -6 -16 -4 -5 9 7 9 9 18 5 20 -4 3 -3 4 3 2 27 -6 48 56 25 71 -6 3
6 21 26 41 26 27 33 41 29 58 -3 13 2 48 11 77 9 30 15 60 14 68 -2 9 3 12 13
8 9 -4 15 -3 15 1 -5 34 3 62 18 62 15 0 14 2 -3 15 -14 11 -15 14 -4 15 9 0
16 11 17 30 2 23 -1 28 -15 24 -9 -3 -5 2 11 11 15 9 27 24 27 35 0 12 7 20
18 20 14 0 14 2 3 9 -12 8 -12 13 2 35 12 17 15 35 11 52 -5 18 -3 25 4 20 6
-4 8 2 5 14 -3 11 0 20 6 20 6 0 11 13 11 30 0 18 5 29 12 27 12 -2 16 13 19
88 2 22 4 32 7 23 2 -10 8 -18 13 -18 12 0 8 53 -6 62 -5 4 1 8 13 8 15 0 22
5 19 13 -2 6 -13 11 -23 9 -11 -2 -15 0 -8 5 6 4 14 15 17 23 4 11 6 10 6 -4
1 -15 4 -16 16 -6 9 7 13 24 11 44 -2 22 2 35 16 44 15 11 16 17 7 28 -9 11
-9 14 1 14 8 0 10 8 6 24 -3 14 -2 27 3 30 4 3 7 21 5 41 -2 25 2 35 12 35 8
0 14 5 14 10 0 6 7 10 15 10 11 0 14 7 9 25 -5 19 -2 25 10 25 12 0 15 6 10
25 -4 18 -1 27 10 31 9 3 14 10 11 14 -3 5 -1 12 5 15 8 5 8 11 0 20 -7 9 -6
20 5 41 19 38 19 51 -2 63 -10 6 -12 11 -5 11 6 0 12 6 12 13 0 7 10 23 23 35
50 47 60 72 30 72 -12 1 -7 6 12 15 20 9 24 14 13 14 -24 1 -23 16 3 39 19 19
19 20 2 38 -17 17 -17 18 1 11 15 -6 17 -4 13 13 -6 25 8 26 22 3 9 -15 10
-15 11 -2 0 8 -5 20 -12 27 -6 6 -13 27 -15 47 -3 34 -2 35 22 29 31 -8 44 18
21 41 -20 21 -20 29 0 21 14 -5 16 -1 10 26 -4 20 -3 28 3 19 6 -9 11 -10 15
-2 4 6 4 11 0 11 -3 0 1 12 11 26 21 32 6 54 -19 29 -9 -9 -16 -12 -16 -6 0
23 41 52 68 48 15 -2 21 -2 15 0 -15 5 -17 39 -3 48 6 4 6 15 -1 31 -8 22 -7
25 7 20 12 -5 15 -2 10 10 -5 12 -2 15 13 11 14 -3 17 0 14 14 -3 11 -9 19
-14 19 -5 0 -9 5 -9 10 0 6 7 10 16 10 11 0 15 6 11 20 -3 11 0 18 6 17 18 -3
19 29 2 47 -15 14 -15 16 -1 16 9 0 16 6 17 13 2 47 11 83 24 97 19 21 19 28
-2 33 -14 4 -13 5 4 6 17 1 21 6 20 29 -3 32 25 68 45 56 10 -6 10 -4 -1 9 -7
9 -21 17 -30 18 -11 0 -10 3 5 9 26 10 30 15 39 58 6 31 5 33 -14 27 -18 -5
-17 -2 9 27 16 18 30 38 30 46 0 7 7 23 16 36 8 14 16 35 18 48 2 12 10 40 19
62 9 21 15 42 12 46 -3 5 -1 11 5 15 6 4 8 11 5 16 -4 5 -1 9 5 9 7 0 10 6 7
14 -3 8 1 20 9 26 17 15 19 70 2 70 -6 0 -8 3 -5 6 4 4 14 1 22 -6 14 -11 14
-10 6 13 -8 19 -7 27 5 31 8 3 14 17 14 30 0 20 4 24 18 19 15 -6 15 -5 3 11
-19 23 -22 56 -4 49 7 -3 13 2 13 11 0 9 6 16 14 16 8 0 14 6 13 13 -1 33 4
47 18 47 12 0 11 4 -5 20 -11 11 -20 24 -20 29 0 13 30 22 43 14 7 -3 4 3 -6
14 -16 18 -16 22 -2 33 8 7 12 17 9 22 -4 6 0 14 7 19 22 13 29 11 22 -8 -6
-15 -5 -16 9 -3 10 9 12 17 6 21 -6 4 -7 12 -3 19 5 9 4 11 -3 6 -16 -10 -15
3 2 37 13 23 13 27 0 27 -20 0 -18 7 15 49 33 42 48 81 30 81 -9 0 -9 3 0 14
6 7 10 20 8 27 -2 8 -2 11 0 7 8 -14 23 -8 23 8 0 11 6 15 20 11 11 -3 18 -1
14 4 -3 5 -12 9 -20 9 -16 0 -19 16 -3 25 6 4 8 13 5 21 -3 7 1 29 9 48 18 43
19 73 3 79 -7 2 -1 2 15 0 26 -4 27 -3 17 23 -9 22 -8 29 3 36 19 10 72 116
64 125 -4 3 -7 -1 -7 -10 0 -9 -4 -17 -9 -17 -5 0 -18 -3 -28 -7 -11 -4 -6 5
15 28 17 18 32 40 32 47 0 6 4 12 9 12 5 0 12 -6 14 -12 4 -8 6 -9 6 -2 1 6
-6 17 -14 24 -19 16 -20 64 -1 57 7 -3 26 8 42 24 15 16 22 29 16 29 -16 0
-16 27 0 32 7 3 8 9 3 18 -14 23 -13 49 2 54 15 6 16 16 3 36 -9 13 -11 13
-20 0 -7 -10 -10 -11 -10 -2 0 7 11 17 25 22 25 10 33 34 15 45 -5 3 -10 14
-10 23 1 14 4 13 20 -7 l20 -23 0 31 c0 44 0 44 16 62 7 8 15 30 17 48 2 17 9
37 15 43 7 7 12 18 12 25 0 7 7 13 15 13 8 0 15 7 15 15 0 9 -6 12 -17 9 -17
-5 -17 -5 0 9 9 8 17 18 17 22 0 4 -8 14 -17 22 -16 13 -15 14 14 10 32 -3 32
-3 16 16 -17 18 -17 19 2 33 17 13 17 14 1 14 -26 0 -9 20 33 38 l36 16 -29 5
c-26 5 -28 7 -13 20 10 7 17 26 17 42 0 16 5 29 13 29 6 0 3 7 -8 16 -17 13
-18 16 -5 24 8 5 18 10 23 10 4 0 7 10 7 23 0 13 3 27 7 31 15 15 30 75 21 89
-9 17 -1 47 13 47 5 0 9 -6 10 -12 0 -7 4 -3 9 10 5 12 15 22 22 22 9 0 10 3
2 8 -6 4 -14 19 -18 35 -5 21 -3 27 10 27 11 0 14 -5 10 -16 -5 -14 -4 -15 9
-4 13 11 12 14 -8 31 -20 17 -20 18 -3 19 12 0 16 5 13 14 -3 8 -2 16 3 18 5
2 11 22 13 45 2 23 9 48 14 55 6 7 14 28 18 46 3 17 10 32 13 32 4 0 7 20 8
45 0 24 7 51 14 60 8 10 9 15 1 15 -6 0 -11 4 -11 10 0 5 5 9 12 7 18 -3 43
52 29 66 -16 16 -13 27 7 27 19 0 23 24 8 49 -5 7 -3 18 3 24 16 16 14 27 -6
27 -13 0 -14 3 -5 12 18 18 14 35 -10 42 -15 3 -27 0 -34 -9 -14 -19 -38 -20
-31 -1 4 10 1 13 -9 9 -14 -5 -18 -15 -15 -43 1 -9 -1 -11 -6 -5 -11 14 -64
37 -71 30 -3 -3 0 -5 6 -5 7 0 12 -4 12 -10 0 -6 -9 -6 -25 0 -27 10 -76 7
-139 -9 -39 -10 -66 -6 -66 10 0 5 -7 9 -15 9 -9 0 -12 -6 -9 -15 4 -8 1 -15
-5 -15 -6 0 -11 9 -11 20 0 24 -8 25 -37 5 -30 -21 -83 -10 -84 19 0 20 -1 20
-8 1 -5 -11 -7 -23 -4 -27 2 -5 -1 -8 -6 -8 -6 0 -11 7 -11 16 0 12 -3 14 -12
6 -20 -16 -54 -18 -71 -4 -13 11 -19 10 -35 -6 -14 -14 -23 -17 -30 -10 -7 7
-20 5 -40 -5 -29 -14 -31 -13 -36 7 -5 16 -8 18 -15 7 -7 -11 -11 -10 -19 5
-9 17 -10 17 -28 0 -17 -18 -19 -18 -36 4 l-18 22 0 -22 c0 -13 -5 -20 -12
-17 -7 2 -21 -3 -32 -12 -18 -15 -18 -15 -11 18 l7 34 -26 -20 c-25 -20 -72
-21 -61 -3 3 5 1 11 -4 14 -5 3 -12 -2 -16 -12 -7 -16 -8 -15 -15 3 -8 18 -9
17 -9 -7 -1 -22 -6 -28 -22 -28 -14 0 -19 5 -16 13 4 10 -2 13 -19 9 -13 -2
-24 -8 -24 -13 0 -5 -7 -9 -15 -9 -8 0 -15 5 -15 12 0 9 -3 8 -12 -1 -10 -11
-10 -14 0 -18 18 -7 15 -31 -4 -29 -9 0 -19 -6 -21 -14 -4 -13 -3 -13 6 0 6 8
11 10 11 4 0 -7 -12 -19 -26 -29 -24 -16 -25 -17 -7 -31 17 -13 17 -15 -11
-40 -21 -19 -30 -36 -30 -60 -1 -21 -6 -34 -14 -34 -9 0 -12 -10 -8 -32 4 -24
0 -35 -15 -46 -11 -8 -18 -20 -15 -28 3 -8 1 -14 -5 -14 -6 0 -9 -7 -5 -15 3
-10 -1 -15 -12 -16 -13 0 -11 -3 6 -9 12 -5 22 -14 22 -20 0 -6 -4 -9 -9 -5
-5 3 -16 -2 -24 -10 -12 -11 -13 -23 -7 -46 8 -27 6 -32 -10 -36 -17 -5 -19
-11 -14 -44 4 -25 3 -39 -4 -39 -6 0 -9 -6 -6 -14 3 -8 -4 -24 -16 -36 -11
-11 -18 -25 -15 -30 4 -6 -6 -10 -20 -10 -25 0 -25 -1 -11 -22 22 -31 20 -47
-4 -41 -19 5 -29 -12 -11 -19 5 -1 6 -18 4 -36 -5 -30 -7 -31 -18 -15 -19 25
-26 12 -16 -25 6 -20 6 -32 0 -32 -5 0 -9 -5 -9 -11 0 -6 7 -9 15 -5 17 6 20
-9 4 -20 -8 -5 -8 -8 0 -14 9 -5 8 -10 -4 -20 -12 -10 -15 -10 -15 1 0 11 -2
11 -10 -1 -14 -21 -12 -67 3 -74 8 -4 7 -5 -3 -5 -37 3 -49 -2 -55 -21 -4 -12
-2 -27 4 -34 12 -14 5 -46 -9 -46 -5 0 -10 6 -13 13 -2 6 -4 -1 -4 -18 -1 -16
3 -35 9 -42 6 -7 5 -14 -4 -20 -7 -4 -20 -21 -28 -37 -13 -26 -13 -29 5 -42
19 -14 18 -14 -1 -15 -10 -1 -25 -1 -33 0 -7 2 -10 -3 -6 -9 4 -6 -1 -20 -11
-31 -12 -13 -13 -19 -4 -19 7 0 19 8 26 18 13 16 13 16 14 -1 0 -23 -35 -61
-49 -52 -6 3 -11 -1 -11 -9 0 -9 -4 -16 -10 -16 -18 0 -11 -18 10 -25 15 -5
17 -10 10 -23 -5 -9 -13 -33 -18 -52 -5 -19 -13 -35 -19 -35 -20 0 -27 -15
-30 -68 -5 -91 -15 -123 -33 -112 -5 3 -14 -4 -20 -15 -9 -16 -8 -20 5 -20 11
0 15 -10 15 -36 0 -33 -2 -35 -17 -23 -15 12 -16 12 -10 -3 4 -13 1 -18 -9
-18 -10 0 -14 -6 -11 -15 4 -8 2 -17 -4 -21 -6 -3 -8 -13 -5 -21 3 -8 -1 -21
-9 -29 -8 -8 -12 -21 -9 -29 4 -8 2 -15 -4 -15 -16 0 -23 -30 -12 -51 6 -10 7
-19 3 -19 -5 0 -16 -12 -25 -27 -16 -28 -14 -52 6 -65 6 -4 -2 -11 -18 -18
-26 -9 -28 -14 -24 -55 2 -31 -1 -45 -9 -45 -7 0 -13 -7 -13 -15 0 -8 -5 -14
-12 -12 -7 1 -13 -8 -14 -21 -1 -12 -4 -26 -8 -29 -3 -4 0 -14 8 -22 13 -15
12 -19 -15 -36 -20 -14 -28 -26 -25 -39 3 -10 2 -32 -1 -48 -4 -23 -8 -26 -19
-17 -8 6 -14 8 -14 4 0 -4 8 -14 18 -21 10 -8 12 -13 5 -14 -7 0 -13 -10 -13
-22 0 -39 -12 -68 -27 -68 -8 0 -11 5 -7 11 4 7 2 10 -5 8 -19 -7 -16 -23 7
-34 l20 -11 -21 -18 -22 -18 25 7 c24 7 23 6 -7 -24 -22 -20 -33 -41 -33 -59
0 -15 -7 -38 -16 -50 -9 -13 -14 -34 -11 -47 2 -14 1 -23 -2 -21 -11 7 -43
-22 -37 -32 3 -6 0 -13 -6 -16 -10 -5 -10 -7 0 -12 14 -6 17 -34 3 -34 -10 0
-22 -53 -22 -96 1 -20 -5 -34 -15 -38 -10 -4 -13 -13 -9 -26 4 -12 2 -20 -5
-20 -6 0 -9 -4 -6 -9 3 -5 -1 -14 -9 -21 -10 -8 -13 -21 -9 -33 4 -13 2 -17
-5 -13 -7 5 -11 -1 -11 -14 0 -12 -9 -24 -22 -29 -14 -5 -17 -10 -10 -15 15
-9 16 -46 2 -46 -5 0 -10 -11 -10 -24 0 -13 -7 -27 -16 -30 -12 -5 -15 -14
-10 -40 4 -20 2 -37 -4 -41 -5 -3 -7 -17 -4 -29 4 -16 0 -25 -11 -30 -9 -3
-13 -11 -10 -17 4 -5 -1 -19 -11 -30 -20 -23 -30 -69 -14 -69 5 0 10 -7 10
-15 0 -8 -7 -15 -15 -15 -10 0 -15 -10 -15 -30 0 -24 -4 -30 -21 -30 -14 0
-19 -5 -16 -14 4 -10 1 -13 -9 -9 -12 4 -13 1 -4 -22 6 -15 8 -36 5 -46 -4
-11 0 -19 10 -21 11 -2 6 -12 -20 -41 -19 -21 -33 -43 -30 -48 4 -5 1 -9 -4
-9 -6 0 -11 -6 -11 -14 0 -7 -10 -17 -22 -21 -22 -7 -22 -8 5 -12 25 -4 27 -7
15 -21 -11 -13 -11 -15 5 -9 22 8 22 2 -1 -21 -10 -10 -25 -16 -33 -13 -11 3
-12 2 -1 -11 10 -13 9 -16 -9 -21 -12 -3 -18 -10 -14 -17 4 -6 1 -17 -5 -25
-10 -12 -9 -15 6 -16 11 0 14 -3 7 -6 -8 -3 -11 -14 -7 -29 4 -17 2 -24 -7
-24 -8 0 -15 -12 -16 -27 0 -15 -6 -29 -12 -31 -12 -4 -15 -28 -3 -35 4 -2 2
-3 -5 -1 -6 1 -13 -6 -16 -17 -3 -11 -1 -16 5 -13 6 4 6 -2 -1 -14 -6 -12 -15
-23 -20 -26 -10 -7 -3 -44 11 -63 6 -8 0 -13 -22 -18 -24 -5 -30 -12 -30 -33
0 -15 -7 -36 -15 -46 -8 -11 -15 -29 -15 -39 0 -16 3 -17 15 -7 28 23 16 -8
-14 -39 -27 -27 -30 -29 -36 -12 -3 10 -2 26 1 36 5 13 3 16 -7 13 -19 -6 -31
23 -138 352 -51 157 -99 301 -107 320 -7 19 -26 79 -43 132 -16 54 -35 106
-40 117 -23 42 -113 34 -126 -11 -20 -68 -87 -276 -94 -293 -5 -11 -17 -47
-26 -80 -9 -33 -23 -76 -30 -95 -7 -19 -37 -108 -65 -198 -51 -159 -67 -192
-94 -192 -17 0 -40 27 -28 32 5 1 12 13 16 25 6 19 4 22 -10 16 -15 -5 -16 -2
-11 27 6 28 5 31 -8 20 -22 -18 -31 -5 -11 15 20 21 21 36 1 29 -11 -4 -15 0
-15 16 0 16 -4 20 -15 16 -9 -3 -15 0 -15 9 0 8 7 15 15 15 17 0 20 16 5 25
-5 3 -10 26 -10 51 0 29 -4 43 -12 41 -6 -1 -14 7 -16 18 -2 11 -13 26 -24 33
-15 11 -17 21 -12 48 5 30 4 34 -15 34 -11 0 -21 5 -21 10 0 6 6 10 14 10 21
0 26 37 7 54 -10 9 -16 30 -16 60 0 36 -3 46 -16 46 -20 0 -42 24 -31 34 4 4
-1 12 -11 17 -12 7 -16 17 -12 30 7 22 -5 25 -25 7 -7 -7 -3 2 9 20 22 31 22
34 6 58 -9 14 -14 33 -10 42 3 8 0 19 -7 24 -10 6 -10 8 0 8 6 0 12 5 12 10 0
6 -7 10 -15 10 -10 0 -15 11 -16 33 0 17 -3 26 -6 20 -7 -18 -23 -16 -23 2 0
8 5 15 12 15 6 0 -1 14 -17 30 -22 23 -25 30 -12 30 9 0 17 5 17 10 0 6 -7 10
-15 10 -10 0 -15 10 -15 33 0 23 -3 28 -9 18 -7 -11 -11 -4 -16 25 -4 21 -17
54 -28 73 -18 31 -19 34 -4 43 22 12 22 28 1 28 -13 0 -15 6 -9 27 5 23 4 25
-10 13 -8 -7 -19 -9 -23 -5 -4 4 -2 10 5 12 14 5 -3 62 -24 78 -7 6 -14 29
-16 53 -1 29 -6 41 -14 37 -19 -7 -16 6 9 32 l21 23 -21 0 c-14 0 -22 6 -22
16 0 10 -6 14 -14 11 -11 -4 -13 5 -11 41 2 51 -20 103 -41 95 -6 -2 -15 0
-19 6 -3 6 0 9 8 5 9 -3 16 3 20 15 3 12 0 18 -7 15 -17 -6 -45 16 -28 23 10
4 10 8 1 19 -9 11 -9 14 1 14 8 0 10 9 6 26 -4 15 -2 32 5 40 9 12 9 13 -4 9
-8 -4 -18 -2 -22 4 -3 6 0 11 7 11 8 0 6 5 -4 11 -10 5 -18 16 -18 24 0 8 -7
18 -16 23 -15 8 -15 10 0 15 9 4 16 11 16 18 0 6 -7 9 -15 5 -12 -4 -14 2 -11
30 4 31 1 37 -23 47 -15 7 -26 18 -24 25 3 6 -1 12 -7 12 -8 0 -11 10 -7 29 4
19 1 33 -8 41 -20 17 -8 32 18 24 19 -6 19 -5 6 9 -9 8 -24 17 -35 20 -17 4
-17 5 -1 6 10 0 17 7 14 14 -2 6 -9 11 -15 10 -5 -1 -12 9 -14 22 -3 13 -1 22
3 19 5 -3 9 2 9 10 0 9 -4 16 -10 16 -5 0 -10 6 -10 14 0 7 -10 17 -22 21 -19
6 -20 8 -6 12 16 4 16 8 -4 46 -34 67 -37 74 -43 108 -3 18 -9 37 -13 43 -8
13 -11 31 -14 74 0 17 -5 32 -10 32 -5 0 -4 9 2 21 7 11 9 23 6 27 -3 3 -6 0
-6 -7 0 -7 -6 -11 -12 -9 -16 6 -18 58 -3 59 5 0 0 4 -12 9 -25 10 -31 48 -11
68 9 9 9 12 -3 12 -20 0 -38 35 -42 85 -2 21 -10 41 -17 43 -7 3 -10 0 -6 -6
3 -6 2 -13 -4 -17 -5 -3 -10 -2 -10 4 0 5 -3 16 -6 25 -4 12 0 16 16 16 l23 0
-26 25 c-26 27 -27 65 -1 65 8 0 11 6 8 15 -5 13 -8 13 -21 0 -18 -19 -27 -19
-20 -1 3 8 0 19 -7 25 -7 6 -12 22 -11 36 3 21 -1 24 -18 21 -12 -2 -16 -1 -9
1 9 3 12 12 7 26 -4 12 -8 30 -9 39 -1 10 -10 26 -19 36 -21 23 -22 36 -2 28
8 -3 15 -1 15 3 0 5 -7 11 -15 15 -8 3 -15 12 -15 21 0 8 -7 15 -15 15 -8 0
-15 5 -15 10 0 6 4 10 9 10 5 0 4 11 -2 25 -7 14 -15 25 -18 25 -3 0 -4 12 -1
27 4 21 2 25 -11 20 -13 -5 -15 -1 -10 23 4 24 2 30 -11 30 -13 0 -16 5 -11
20 4 12 1 28 -7 37 -7 9 -13 28 -14 42 -1 14 -5 35 -9 45 -5 11 -4 31 2 47 9
23 8 31 -5 41 -13 11 -14 10 -9 -14 6 -21 4 -26 -7 -22 -21 8 -26 39 -10 70
17 31 9 47 -10 21 -7 -9 -17 -17 -21 -17 -4 0 -2 6 4 13 8 10 6 23 -9 53 -11
21 -18 45 -15 53 3 7 1 19 -5 26 -5 7 -11 31 -12 54 -1 25 -8 47 -17 54 -9 7
-16 21 -16 32 0 13 -6 20 -17 19 -14 -1 -18 6 -18 32 0 26 -5 37 -22 45 -22 9
-21 9 5 6 32 -5 36 13 7 31 -11 7 -20 23 -20 37 0 13 -9 33 -21 44 -18 16 -19
22 -7 40 11 19 11 23 -4 32 -11 6 -18 22 -18 40 0 27 -2 29 -21 19 -18 -10
-19 -9 -11 7 15 27 12 73 -4 73 -8 0 -14 4 -14 8 0 4 -16 15 -35 24 -19 8 -35
12 -35 8z m4457 -52 c-3 -8 -6 -5 -6 6 -1 11 2 17 5 13 3 -3 4 -12 1 -19z
m-4967 2 c0 -5 -5 -10 -11 -10 -5 0 -7 5 -4 10 3 6 8 10 11 10 2 0 4 -4 4 -10z
m5430 -10 c0 -5 -4 -10 -10 -10 -5 0 -10 5 -10 10 0 6 5 10 10 10 6 0 10 -4
10 -10z m-4806 -116 c5 -14 4 -15 -9 -4 -17 14 -19 20 -6 20 5 0 12 -7 15 -16z
m-1194 -324 c0 -5 -5 -10 -11 -10 -5 0 -7 5 -4 10 3 6 8 10 11 10 2 0 4 -4 4
-10z m4625 -619 c3 -5 1 -12 -5 -16 -5 -3 -10 1 -10 9 0 18 6 21 15 7z m-4370
-281 c3 -5 1 -10 -4 -10 -6 0 -11 5 -11 10 0 6 2 10 4 10 3 0 8 -4 11 -10z
m1435 -224 c0 -3 -4 -8 -10 -11 -5 -3 -10 -1 -10 4 0 6 5 11 10 11 6 0 10 -2
10 -4z m4058 -68 c-6 -18 -28 -21 -28 -4 0 9 7 16 16 16 9 0 14 -5 12 -12z
m-3978 -177 c0 -5 -9 -11 -21 -14 -16 -4 -18 -3 -8 9 13 16 29 19 29 5z
m-1324 -48 c-10 -10 -19 5 -10 18 6 11 8 11 12 0 2 -7 1 -15 -2 -18z m3924
-83 c0 -5 -5 -10 -11 -10 -5 0 -7 5 -4 10 3 6 8 10 11 10 2 0 4 -4 4 -10z
m-3600 -830 c0 -5 -4 -10 -10 -10 -5 0 -10 5 -10 10 0 6 5 10 10 10 6 0 10 -4
10 -10z m4470 -330 c0 -5 -4 -10 -10 -10 -5 0 -7 -7 -4 -15 4 -8 1 -15 -5 -15
-12 0 -15 32 -4 43 10 10 23 8 23 -3z m-4200 -542 c0 -5 -4 -8 -10 -8 -5 0
-10 10 -10 23 0 18 2 19 10 7 5 -8 10 -18 10 -22z m10 -28 c0 -5 -7 -10 -15
-10 -8 0 -15 5 -15 10 0 6 7 10 15 10 8 0 15 -4 15 -10z m70 -207 c-1 -18 -18
-35 -24 -24 -4 6 -4 16 -1 21 7 12 25 13 25 3z m1340 -3 c0 -5 -4 -10 -10 -10
-5 0 -10 5 -10 10 0 6 5 10 10 10 6 0 10 -4 10 -10z m20 -30 c0 -5 -7 -10 -16
-10 -8 0 -12 5 -9 10 3 6 10 10 16 10 5 0 9 -4 9 -10z m-15 -49 c-6 -5 -25 10
-25 20 0 5 6 4 14 -3 8 -7 12 -15 11 -17z m40 -29 c-3 -3 -11 0 -18 7 -9 10
-8 11 6 5 10 -3 15 -9 12 -12z m-1171 -505 c7 -6 6 -7 -4 -4 -8 2 -16 12 -17
23 -2 13 -1 15 4 4 3 -8 11 -19 17 -23z m1353 -49 c-3 -8 -6 -5 -6 6 -1 11 2
17 5 13 3 -3 4 -12 1 -19z m392 -385 c6 -16 36 -104 67 -198 31 -93 60 -175
65 -182 16 -18 0 -63 -19 -55 -14 4 -15 3 -6 -9 6 -8 14 -25 17 -37 5 -23 5
-23 -14 -6 -20 18 -23 12 -10 -21 8 -20 -8 -45 -28 -45 -6 0 -11 -4 -11 -10 0
-5 6 -10 14 -10 23 0 28 -17 11 -33 -8 -9 -15 -20 -15 -26 0 -6 -8 -8 -17 -4
-15 5 -16 3 -5 -8 17 -18 15 -48 -4 -56 -8 -3 -13 -12 -10 -19 7 -17 -20 -19
-28 -1 -3 6 -3 2 0 -10 4 -17 2 -21 -10 -17 -23 9 -28 34 -8 41 14 6 13 8 -8
13 -14 3 -26 11 -26 18 -1 7 -2 18 -3 25 0 6 -14 18 -31 25 -32 15 -39 42 -16
61 17 14 9 51 -11 51 -11 0 -13 7 -9 25 5 18 2 25 -8 25 -9 0 -16 16 -21 46
-5 36 -10 44 -23 39 -13 -5 -13 -3 2 14 10 11 16 26 13 33 -2 7 1 29 8 48 7
19 30 89 50 155 49 153 71 183 94 128z m-154 -423 c3 -5 -1 -10 -9 -10 -9 0
-16 5 -16 10 0 6 4 10 9 10 6 0 13 -4 16 -10z m-1265 -134 c0 -3 -4 -8 -10
-11 -5 -3 -10 -1 -10 4 0 6 5 11 10 11 6 0 10 -2 10 -4z m2722 -194 c-7 -2
-12 -10 -12 -18 0 -14 -12 -19 -22 -8 -9 8 25 42 37 36 5 -3 4 -7 -3 -10z
m-2652 -82 c0 -5 -7 -10 -15 -10 -8 0 -15 5 -15 10 0 6 7 10 15 10 8 0 15 -4
15 -10z m2640 -40 c0 -5 -7 -10 -16 -10 -8 0 -12 5 -9 10 3 6 10 10 16 10 5 0
9 -4 9 -10z m-2550 -260 c0 -5 -4 -10 -10 -10 -5 0 -10 5 -10 10 0 6 5 10 10
10 6 0 10 -4 10 -10z m2330 -450 c0 -5 -4 -10 -10 -10 -5 0 -10 5 -10 10 0 6
5 10 10 10 6 0 10 -4 10 -10z m-83 -132 c-3 -8 -6 -5 -6 6 -1 11 2 17 5 13 3
-3 4 -12 1 -19z m-12 -48 c3 -5 -1 -10 -9 -10 -9 0 -16 5 -16 10 0 6 4 10 9
10 6 0 13 -4 16 -10z m-1895 -360 c0 -5 -7 -10 -15 -10 -8 0 -15 5 -15 10 0 6
7 10 15 10 8 0 15 -4 15 -10z m1780 -60 c0 -5 -4 -10 -10 -10 -5 0 -10 5 -10
10 0 6 5 10 10 10 6 0 10 -4 10 -10z m-1730 -125 c0 -8 -4 -15 -10 -15 -5 0
-10 7 -10 15 0 8 5 15 10 15 6 0 10 -7 10 -15z m1580 -296 c0 -5 -7 -9 -15 -9
-15 0 -20 12 -9 23 8 8 24 -1 24 -14z m-20 -89 c0 -5 -7 -10 -16 -10 -8 0 -12
5 -9 10 3 6 10 10 16 10 5 0 9 -4 9 -10z m-1320 -295 c0 -8 -4 -15 -10 -15 -5
0 -10 7 -10 15 0 8 5 15 10 15 6 0 10 -7 10 -15z m1090 -305 c0 -5 -4 -10 -10
-10 -5 0 -10 5 -10 10 0 6 5 10 10 10 6 0 10 -4 10 -10z m-854 -397 c-7 -7
-26 7 -26 19 0 6 6 6 15 -2 9 -7 13 -15 11 -17z m104 -375 c0 -5 -7 -8 -15 -8
-15 0 -20 21 -8 33 7 7 23 -11 23 -25z m477 -40 c-3 -8 -6 -5 -6 6 -1 11 2 17
5 13 3 -3 4 -12 1 -19z m-57 -218 c0 -5 -2 -10 -4 -10 -3 0 -8 5 -11 10 -3 6
-1 10 4 10 6 0 11 -4 11 -10z"/>
<path d="M6735 5420 c3 -5 8 -10 11 -10 2 0 4 5 4 10 0 6 -5 10 -11 10 -5 0
-7 -4 -4 -10z"/>
<path d="M9380 11090 c0 -5 5 -10 11 -10 5 0 7 5 4 10 -3 6 -8 10 -11 10 -2 0
-4 -4 -4 -10z"/>
<path d="M4030 11079 c0 -5 5 -7 10 -4 6 3 10 8 10 11 0 2 -4 4 -10 4 -5 0
-10 -5 -10 -11z"/>
<path d="M9526 11061 c-4 -5 3 -7 14 -4 23 6 26 13 6 13 -8 0 -17 -4 -20 -9z"/>
<path d="M8520 10850 c0 -5 5 -10 10 -10 6 0 10 5 10 10 0 6 -4 10 -10 10 -5
0 -10 -4 -10 -10z"/>
<path d="M9822 10776 c7 -8 15 -12 17 -11 5 6 -10 25 -20 25 -5 0 -4 -6 3 -14z"/>
<path d="M8503 10753 c-15 -5 -17 -23 -4 -23 5 0 11 7 15 15 3 8 4 15 3 14 -1
0 -8 -3 -14 -6z"/>
<path d="M5122 10141 c-10 -6 -10 -10 3 -21 13 -11 15 -9 15 9 0 24 0 24 -18
12z"/>
<path d="M9630 10100 c0 -5 5 -10 10 -10 6 0 10 5 10 10 0 6 -4 10 -10 10 -5
0 -10 -4 -10 -10z"/>
<path d="M8025 9330 c-3 -5 1 -10 10 -10 9 0 13 5 10 10 -3 6 -8 10 -10 10 -2
0 -7 -4 -10 -10z"/>
<path d="M8010 9249 c0 -5 5 -7 10 -4 6 3 10 8 10 11 0 2 -4 4 -10 4 -5 0 -10
-5 -10 -11z"/>
<path d="M5463 9121 c0 -9 9 -17 19 -17 10 0 18 1 18 1 0 0 -9 8 -19 17 -18
16 -20 15 -18 -1z"/>
<path d="M9261 9014 c0 -11 3 -14 6 -6 3 7 2 16 -1 19 -3 4 -6 -2 -5 -13z"/>
<path d="M6604 8889 c-218 -36 -404 -162 -513 -347 -147 -250 -127 -549 53
-788 87 -117 247 -182 417 -171 138 9 188 45 248 180 35 78 43 136 31 230 -11
86 -34 145 -84 210 -58 76 -54 80 69 75 109 -4 124 2 88 34 -29 25 -96 56
-138 63 -89 15 -91 22 -18 55 25 11 47 20 49 20 2 0 10 -12 18 -27 l15 -28 1
41 c0 27 6 47 19 58 28 25 41 12 41 -42 1 -46 1 -46 15 -22 10 17 12 40 9 71
-4 29 -2 49 5 53 6 4 11 17 11 30 0 35 -66 61 -149 58 -121 -3 -192 -64 -226
-193 -31 -117 -13 -213 71 -380 63 -123 70 -169 40 -237 -15 -33 -28 -45 -63
-58 -125 -48 -339 45 -420 183 -59 100 -70 267 -28 402 56 175 181 301 362
363 391 135 795 -202 735 -612 -30 -207 -177 -389 -363 -452 -35 -11 -81 -36
-101 -54 -46 -41 -96 -67 -171 -89 -31 -9 -55 -21 -52 -26 11 -17 217 -10 299
11 187 48 367 189 453 355 121 234 108 508 -33 720 -107 162 -275 272 -473
309 -90 17 -138 18 -217 5z m176 -343 c0 -2 -9 -6 -20 -9 -11 -3 -18 -1 -14 4
5 9 34 13 34 5z"/>
<path d="M5605 8650 c3 -5 8 -10 11 -10 2 0 4 5 4 10 0 6 -5 10 -11 10 -5 0
-7 -4 -4 -10z"/>
<path d="M9141 8624 c0 -11 3 -14 6 -6 3 7 2 16 -1 19 -3 4 -6 -2 -5 -13z"/>
<path d="M9055 8380 c3 -5 8 -10 11 -10 2 0 4 5 4 10 0 6 -5 10 -11 10 -5 0
-7 -4 -4 -10z"/>
<path d="M5770 8139 c0 -5 5 -7 10 -4 6 3 10 8 10 11 0 2 -4 4 -10 4 -5 0 -10
-5 -10 -11z"/>
<path d="M5838 8003 c7 -3 16 -2 19 1 4 3 -2 6 -13 5 -11 0 -14 -3 -6 -6z"/>
<path d="M4466 7845 c4 -8 10 -15 15 -15 5 0 9 7 9 15 0 8 -7 15 -15 15 -9 0
-12 -6 -9 -15z"/>
<path d="M7500 7729 c0 -5 5 -7 10 -4 6 3 10 8 10 11 0 2 -4 4 -10 4 -5 0 -10
-5 -10 -11z"/>
<path d="M8781 7504 c0 -11 3 -14 6 -6 3 7 2 16 -1 19 -3 4 -6 -2 -5 -13z"/>
<path d="M7380 7335 c0 -8 5 -15 10 -15 6 0 10 7 10 15 0 8 -4 15 -10 15 -5 0
-10 -7 -10 -15z"/>
<path d="M8610 7019 c0 -5 5 -7 10 -4 6 3 10 8 10 11 0 2 -4 4 -10 4 -5 0 -10
-5 -10 -11z"/>
<path d="M4771 6914 c0 -11 3 -14 6 -6 3 7 2 16 -1 19 -3 4 -6 -2 -5 -13z"/>
<path d="M7128 6648 c9 -9 15 -9 24 0 9 9 7 12 -12 12 -19 0 -21 -3 -12 -12z"/>
<path d="M4861 6614 c0 -11 3 -14 6 -6 3 7 2 16 -1 19 -3 4 -6 -2 -5 -13z"/>
<path d="M8430 6580 c0 -11 5 -20 10 -20 6 0 10 9 10 20 0 11 -4 20 -10 20 -5
0 -10 -9 -10 -20z"/>
<path d="M7095 6530 c3 -5 8 -10 11 -10 2 0 4 5 4 10 0 6 -5 10 -11 10 -5 0
-7 -4 -4 -10z"/>
<path d="M8340 6270 c0 -5 4 -10 9 -10 6 0 13 5 16 10 3 6 -1 10 -9 10 -9 0
-16 -4 -16 -10z"/>
<path d="M5010 6179 c0 -5 5 -7 10 -4 6 3 10 8 10 11 0 2 -4 4 -10 4 -5 0 -10
-5 -10 -11z"/>
<path d="M8121 5534 c0 -11 3 -14 6 -6 3 7 2 16 -1 19 -3 4 -6 -2 -5 -13z"/>
<path d="M8050 5331 c0 -6 5 -13 10 -16 6 -3 10 1 10 9 0 9 -4 16 -10 16 -5 0
-10 -4 -10 -9z"/>
<path d="M5288 5313 c7 -3 16 -2 19 1 4 3 -2 6 -13 5 -11 0 -14 -3 -6 -6z"/>
<path d="M8005 5191 c-6 -11 9 -23 19 -14 9 9 7 23 -3 23 -6 0 -12 -4 -16 -9z"/>
<path d="M5611 4424 c0 -11 3 -14 6 -6 3 7 2 16 -1 19 -3 4 -6 -2 -5 -13z"/>
<path d="M5602 4346 c7 -8 15 -12 17 -11 5 6 -10 25 -20 25 -5 0 -4 -6 3 -14z"/>
<path d="M7595 3989 c-11 -17 1 -21 15 -4 8 9 8 15 2 15 -6 0 -14 -5 -17 -11z"/>
<path d="M7311 3084 c0 -11 3 -14 6 -6 3 7 2 16 -1 19 -3 4 -6 -2 -5 -13z"/>
<path d="M7190 2740 c-9 -6 -10 -10 -3 -10 6 0 15 5 18 10 8 12 4 12 -15 0z"/>
<path d="M6247 2484 c-8 -8 1 -24 14 -24 5 0 9 7 9 15 0 15 -12 20 -23 9z"/>
<path d="M6318 2223 c7 -3 16 -2 19 1 4 3 -2 6 -13 5 -11 0 -14 -3 -6 -6z"/>
<path d="M6331 2174 c0 -11 3 -14 6 -6 3 7 2 16 -1 19 -3 4 -6 -2 -5 -13z"/>
</g>
</svg>
